<?xml version="1.0" encoding="UTF-8"?>
<svg width="120px" height="55px" viewBox="0 0 120 55" version="1.1" xmlns="http://www.w3.org/2000/svg" xmlns:xlink="http://www.w3.org/1999/xlink">
    <!-- Generator: sketchtool 51.2 (57519) - http://www.bohemiancoding.com/sketch -->
    <title>494E3AF0-4CED-47D5-88E7-599C4E27E140</title>
    <desc>Created with sketchtool.</desc>
    <defs>
        <polygon id="path-1" points="0 0.197112903 21.8591929 0.197112903 21.8591929 34.7740161 0 34.7740161"></polygon>
        <polygon id="path-3" points="0.149412463 0.175716129 9.89020772 0.175716129 9.89020772 13.2650065 0.149412463 13.2650065"></polygon>
    </defs>
    <g id="LSSA-version-2" stroke="none" stroke-width="1" fill="none" fill-rule="evenodd">
        <g id="LSSA---Design-iventory---Icons" transform="translate(-120.000000, -335.000000)">
            <g id="Logo" transform="translate(120.000000, 335.000000)">
                <g>
                    <path d="M11.8364866,11.3823032 L14.5274065,11.3823032 L14.5274065,5.61262581 C14.5274065,2.51310968 12.0056261,0.000141935484 8.89524036,0.000141935484 L7.33167953,0.000141935484 L7.33167953,6.89323871 C7.33167953,9.37249677 9.34853412,11.3823032 11.8364866,11.3823032" id="Fill-1" fill="#93B291"></path>
                    <path d="M21.7870148,21.8924839 C23.4139585,20.8893548 25.3200712,20.295 27.3622077,20.2470968 C28.3645816,19.1981935 28.983454,17.7823871 28.983454,16.2193226 L28.983454,2.33306452 L22.3756202,2.33306452 C19.1352641,2.33306452 16.5084392,4.95070968 16.5084392,8.17974194 L16.5084392,14.9585806 C19.3268368,16.1440968 21.38927,18.7599677 21.7870148,21.8924839" id="Fill-3" fill="#A5CD38"></path>
                    <g id="Group-7" transform="translate(0.000000, 20.043419)">
                        <mask id="mask-2" fill="white">
                            <use xlink:href="#path-1"></use>
                        </mask>
                        <g id="Clip-6"></g>
                        <path d="M16.5083323,20.1532419 L14.2244154,20.1532419 C9.39058754,20.1532419 5.47189318,16.2478871 5.47189318,11.4316613 L5.47189318,0.197112903 L-3.56083086e-05,0.197112903 L-3.56083086e-05,23.1984677 C-3.56083086e-05,29.5919516 5.20055786,34.7740161 11.6157507,34.7740161 L21.8591929,34.7740161 L21.8591929,31.2447903 L16.5083323,31.2447903 L16.5083323,20.1532419 Z" id="Fill-5" fill="#A5CD38" mask="url(#mask-2)"></path>
                    </g>
                    <path d="M16.5083323,14.9584032 C15.4625163,14.5184032 14.3134362,14.2749839 13.1066706,14.2749839 L5.47189318,14.2749839 L5.47189318,20.2401774 L5.47189318,31.4747258 C5.47189318,36.2913065 9.39058754,40.1963065 14.2244154,40.1963065 L16.5083323,40.1963065 L16.5083323,31.3207258 C16.5083323,28.6427581 17.4619228,26.1869194 19.0486291,24.2711452 C19.7543858,23.4191774 20.5865519,22.6761452 21.5148605,22.0661774 C21.6049496,22.0069194 21.6950386,21.9487258 21.786908,21.8923065 C21.3895193,18.7597903 19.32673,16.1442742 16.5083323,14.9584032" id="Fill-8" fill="#2E9E46"></path>
                    <path d="M27.6275964,20.2404258 C27.5385757,20.2404258 27.4509792,20.2450387 27.3623145,20.2471677 C25.320178,20.295071 23.4140653,20.8894258 21.7871217,21.8925548 C21.6952522,21.9489742 21.6048071,22.0071677 21.5150742,22.0664258 C20.5867656,22.6763935 19.7545994,23.4194258 19.0488427,24.2713935 C17.4617804,26.1868129 16.508546,28.6430065 16.508546,31.3209742 L16.508546,51.2881032 L25.0299703,51.2881032 C31.1709792,51.2881032 36.1490208,46.3278129 36.1490208,40.2079097 L36.1490208,20.2404258 L27.6275964,20.2404258 Z" id="Fill-10" fill="#447B6E"></path>
                    <path d="M43.2717864,18.5015742 C43.2105401,18.4405419 43.180273,18.3614129 43.180273,18.2638323 L43.180273,6.12515484 C43.180273,6.02792903 43.2105401,5.94844516 43.2717864,5.8874129 C43.3333887,5.82673548 43.4124392,5.79621935 43.510362,5.79621935 L45.8954065,5.79621935 C45.9929733,5.79621935 46.0723798,5.82673548 46.13327,5.8874129 C46.1948724,5.94844516 46.2254955,6.02792903 46.2254955,6.12515484 L46.2254955,15.868671 C46.2254955,15.9541871 46.2682255,15.9967677 46.3540415,15.9967677 L52.0595608,15.9967677 C52.1574837,15.9967677 52.2365341,16.0272839 52.2977804,16.0883161 C52.3593828,16.1497032 52.3896499,16.2284774 52.3896499,16.3257032 L52.3896499,18.2638323 C52.3896499,18.3614129 52.3593828,18.4405419 52.2977804,18.5015742 C52.2365341,18.5626065 52.1574837,18.5927677 52.0595608,18.5927677 L43.510362,18.5927677 C43.4124392,18.5927677 43.3333887,18.5626065 43.2717864,18.5015742" id="Fill-12" fill="#475764"></path>
                    <path d="M57.658184,14.2605065 C57.658184,14.3336032 57.6952166,14.3697968 57.7678576,14.3697968 L60.4833472,14.3697968 C60.5317745,14.3697968 60.5663145,14.3548935 60.5841187,14.3243774 C60.6022789,14.2942161 60.6054837,14.2605065 60.5933769,14.2239581 L59.1993116,9.36124839 C59.1868487,9.29986129 59.1654837,9.26934516 59.1348605,9.26934516 C59.1045935,9.26934516 59.0764629,9.29986129 59.0526053,9.36124839 L57.658184,14.2239581 L57.658184,14.2605065 Z M61.768095,18.3187968 L61.3461365,16.8199581 C61.3336736,16.7468613 61.283822,16.7099581 61.1990742,16.7099581 L57.0528427,16.7099581 C56.9794896,16.7099581 56.9307062,16.7468613 56.9057804,16.8199581 L56.484178,18.3187968 C56.4353947,18.5015387 56.312546,18.5930871 56.1170564,18.5930871 L53.5304688,18.5930871 C53.4083323,18.5930871 53.3221602,18.5597323 53.2737329,18.4923129 C53.2249496,18.4256032 53.2188961,18.3368935 53.2555727,18.2276032 L57.1076795,6.07047419 C57.1689258,5.88773226 57.2974718,5.79618387 57.4933175,5.79618387 L60.7404392,5.79618387 C60.9480356,5.79618387 61.0765816,5.88773226 61.1257211,6.07047419 L64.9963442,18.2276032 C65.0088071,18.2517323 65.0148605,18.2943129 65.0148605,18.3549903 C65.0148605,18.5136032 64.9165816,18.5930871 64.7214481,18.5930871 L62.1348605,18.5930871 C61.9390148,18.5930871 61.8165223,18.5015387 61.768095,18.3187968 Z" id="Fill-14" fill="#475764"></path>
                    <path d="M65.9623264,18.5015742 C65.900724,18.4405419 65.8701009,18.3614129 65.8701009,18.2638323 L65.8701009,6.12515484 C65.8701009,6.02792903 65.900724,5.94844516 65.9623264,5.8874129 C66.0232166,5.82673548 66.1026231,5.79621935 66.2012582,5.79621935 L68.4570445,5.79621935 C68.6279644,5.79621935 68.7568665,5.86931613 68.8423264,6.01550968 L72.8781721,12.8159935 C72.9027418,12.8646065 72.9330089,12.8834129 72.9703976,12.8709935 C73.0070742,12.858929 73.0248783,12.8220258 73.0248783,12.7609935 L73.0070742,6.12515484 C73.0070742,6.02792903 73.0369852,5.94844516 73.0985875,5.8874129 C73.1594777,5.82673548 73.2388843,5.79621935 73.3371632,5.79621935 L75.6851751,5.79621935 C75.7827418,5.79621935 75.8625045,5.82673548 75.9237507,5.8874129 C75.9846409,5.94844516 76.0152641,6.02792903 76.0152641,6.12515484 L76.0152641,18.2638323 C76.0152641,18.3614129 75.9846409,18.4405419 75.9237507,18.5015742 C75.8625045,18.5626065 75.7827418,18.5927677 75.6851751,18.5927677 L73.4286766,18.5927677 C73.2695074,18.5927677 73.1409614,18.519671 73.0433947,18.3734774 L69.007549,11.4814452 C68.9826231,11.4207677 68.9495074,11.3962839 68.9067774,11.4083484 C68.8636914,11.4207677 68.8423264,11.4569613 68.8423264,11.5179935 L68.879003,18.2638323 C68.879003,18.3614129 68.8483798,18.4405419 68.7874896,18.5015742 C68.7262433,18.5626065 68.6464807,18.5927677 68.5489139,18.5927677 L66.2012582,18.5927677 C66.1026231,18.5927677 66.0232166,18.5626065 65.9623264,18.5015742" id="Fill-16" fill="#475764"></path>
                    <path d="M80.5193234,15.9967677 L82.3720237,15.9967677 C82.8609258,15.9967677 83.2583145,15.8232516 83.564546,15.4758645 C83.8697092,15.1284774 84.0292344,14.6625742 84.0416973,14.0774452 L84.0416973,10.3115419 C84.0416973,9.7264129 83.8857329,9.26050968 83.5734481,8.91276774 C83.2615193,8.56538065 82.8552285,8.39186452 82.3531513,8.39186452 L80.5193234,8.39186452 C80.4331513,8.39186452 80.3907774,8.4348 80.3907774,8.51996129 L80.3907774,15.868671 C80.3907774,15.9541871 80.4331513,15.9967677 80.5193234,15.9967677 M77.4374243,18.5015742 C77.375822,18.4405419 77.3451988,18.3614129 77.3451988,18.2638323 L77.3451988,6.12515484 C77.3451988,6.02792903 77.375822,5.94844516 77.4374243,5.8874129 C77.4983145,5.82673548 77.577365,5.79621935 77.676,5.79621935 L82.2434777,5.79621935 C83.1974243,5.79621935 84.0416973,5.96050968 84.7748724,6.2898 C85.5094718,6.61873548 86.0777804,7.08783226 86.4815786,7.69744516 C86.8846647,8.30670323 87.0862077,9.00750968 87.0862077,9.79950968 L87.0862077,14.5891226 C87.0862077,15.3814774 86.8846647,16.0822839 86.4815786,16.6915419 C86.0777804,17.3011548 85.5094718,17.7702516 84.7748724,18.0995419 C84.0416973,18.4284774 83.1974243,18.5927677 82.2434777,18.5927677 L77.676,18.5927677 C77.577365,18.5927677 77.4983145,18.5626065 77.4374243,18.5015742" id="Fill-18" fill="#475764"></path>
                    <path d="M45.1892226,34.5979097 C44.4489258,34.2757161 43.8774125,33.8119419 43.4736142,33.2087161 C43.0701721,32.6058452 42.868273,31.9078774 42.868273,31.1158774 L42.868273,30.8784903 C42.868273,30.7805548 42.8985401,30.7017806 42.9597864,30.6403935 C43.0210326,30.5797161 43.1004392,30.5488452 43.1987181,30.5488452 L45.5282136,30.5488452 C45.6261365,30.5488452 45.705543,30.5701355 45.7671454,30.613071 C45.8276795,30.6560065 45.8586588,30.7074581 45.8586588,30.7681355 L45.8586588,30.9874258 C45.8586588,31.3781032 46.0573531,31.7247806 46.4547418,32.0299419 C46.8524866,32.3343935 47.3631098,32.4869742 47.9869674,32.4869742 C48.5250089,32.4869742 48.9223976,32.3712968 49.1794896,32.1392323 C49.4362255,31.9078774 49.5640593,31.6399742 49.5640593,31.3351677 C49.5640593,30.9945226 49.4141484,30.7315871 49.1146825,30.5488452 C48.8155727,30.3661032 48.2803798,30.1532 47.5094599,29.909071 L47.1063739,29.781329 C46.3233472,29.5247806 45.6382433,29.2480065 45.0517745,28.9488774 C44.4642374,28.6508129 43.9628724,28.2363613 43.5476795,27.7062323 C43.1314184,27.1757484 42.9234659,26.5207161 42.9234659,25.7407806 C42.9234659,24.985329 43.1221602,24.3239097 43.519549,23.7572323 C43.9169377,23.1909097 44.4670861,22.7551677 45.1710623,22.4500065 C45.8736142,22.1455548 46.6719525,21.993329 47.5650089,21.993329 C48.5061365,21.993329 49.3536142,22.1636516 50.1056617,22.5050065 C50.8577092,22.8463613 51.4477389,23.3275226 51.8757507,23.9492 C52.3041187,24.5708774 52.5184807,25.2833935 52.5184807,26.0881677 L52.5184807,26.2347161 C52.5184807,26.3319419 52.4875015,26.4114258 52.4262552,26.4721032 C52.3650089,26.5331355 52.2856024,26.5632968 52.1876795,26.5632968 L49.858184,26.5632968 C49.759549,26.5632968 49.6804985,26.5480387 49.6192522,26.5178774 C49.5580059,26.4877161 49.528095,26.4419419 49.528095,26.3809097 L49.528095,26.2159097 C49.528095,25.7897484 49.3379466,25.4114903 48.9587181,25.0829097 C48.5802018,24.7536194 48.0720712,24.5889742 47.4364629,24.5889742 C46.9596677,24.5889742 46.5861365,24.6869097 46.3172938,24.8813613 C46.048451,25.0765226 45.9142077,25.3508129 45.9142077,25.7045871 C45.9142077,25.9721355 45.9996677,26.1949742 46.1702315,26.371329 C46.3415074,26.5480387 46.6078576,26.7126839 46.9685697,26.8649097 C47.3289258,27.0178452 47.882635,27.2154903 48.6289852,27.4596194 C49.4846528,27.7516516 50.1515964,28.0082 50.6283917,28.2271355 C51.105543,28.4464258 51.5549199,28.8030387 51.9765223,29.2969742 C52.3988368,29.7902 52.609638,30.4392 52.609638,31.2439742 C52.609638,32.0111355 52.408095,32.6846194 52.0046528,33.2637161 C51.6008546,33.8428129 51.0321899,34.2909742 50.2986588,34.6071355 C49.5640593,34.9243613 48.7204985,35.0826194 47.7665519,35.0826194 C46.7880356,35.0826194 45.9288071,34.9211677 45.1892226,34.5979097" id="Fill-20" fill="#475764"></path>
                    <path d="M62.6205935,24.6438677 C62.5589911,24.7049 62.4795846,24.7350613 62.3816617,24.7350613 L56.768724,24.7350613 C56.6821958,24.7350613 56.639822,24.7779968 56.639822,24.8631581 L56.639822,27.039029 C56.639822,27.1238355 56.6821958,27.1664161 56.768724,27.1664161 L60.3089021,27.1664161 C60.4068249,27.1664161 60.4865875,27.1969323 60.5478338,27.2583194 C60.608368,27.3197065 60.6393472,27.3981258 60.6393472,27.4960613 L60.6393472,29.4153839 C60.6393472,29.5129645 60.608368,29.5920935 60.5478338,29.652771 C60.4865875,29.7145129 60.4068249,29.7446742 60.3089021,29.7446742 L56.768724,29.7446742 C56.6821958,29.7446742 56.639822,29.7879645 56.639822,29.8724161 L56.639822,32.2125774 C56.639822,32.2977387 56.6821958,32.3403194 56.768724,32.3403194 L62.3816617,32.3403194 C62.4795846,32.3403194 62.5589911,32.3708355 62.6205935,32.4318677 C62.6814837,32.4932548 62.7124629,32.572029 62.7124629,32.6696097 L62.7124629,34.6073839 C62.7124629,34.7049645 62.6814837,34.7844484 62.6205935,34.8454806 C62.5589911,34.9061581 62.4795846,34.9363194 62.3816617,34.9363194 L53.9246884,34.9363194 C53.8271217,34.9363194 53.7477151,34.9061581 53.6864688,34.8454806 C53.6252226,34.7844484 53.5949555,34.7049645 53.5949555,34.6073839 L53.5949555,22.4687065 C53.5949555,22.3711258 53.6252226,22.2919968 53.6864688,22.2306097 C53.7477151,22.1699323 53.8271217,22.1394161 53.9246884,22.1394161 L62.3816617,22.1394161 C62.4795846,22.1394161 62.5589911,22.1699323 62.6205935,22.2306097 C62.6814837,22.2919968 62.7124629,22.3711258 62.7124629,22.4687065 L62.7124629,24.4061258 C62.7124629,24.5037065 62.6814837,24.5831903 62.6205935,24.6438677" id="Fill-22" fill="#475764"></path>
                    <path d="M66.8198813,24.863229 L66.8198813,27.3861323 C66.8198813,27.4716484 66.8629674,27.514229 66.9473591,27.514229 L68.9478338,27.514229 C69.3997033,27.514229 69.7664688,27.3893258 70.0484866,27.1398742 C70.3294362,26.8897129 70.4704451,26.5575839 70.4704451,26.1427774 C70.4704451,25.7162613 70.3294362,25.3752613 70.0484866,25.1190677 C69.7664688,24.863229 69.3997033,24.7351323 68.9478338,24.7351323 L66.9473591,24.7351323 C66.8629674,24.7351323 66.8198813,24.7780677 66.8198813,24.863229 M70.3600593,34.6805516 L68.2324629,29.9271323 C68.207181,29.8664548 68.1587537,29.8359387 68.0857567,29.8359387 L66.9473591,29.8359387 C66.8629674,29.8359387 66.8198813,29.8788742 66.8198813,29.9640355 L66.8198813,34.6071 C66.8198813,34.7050355 66.7889021,34.7838097 66.7276558,34.8451968 C66.6660534,34.906229 66.587003,34.9363903 66.4890801,34.9363903 L64.1043917,34.9363903 C64.0064688,34.9363903 63.9274184,34.906229 63.8661721,34.8451968 C63.8042136,34.7838097 63.7739466,34.7050355 63.7739466,34.6071 L63.7739466,22.4687774 C63.7739466,22.3711968 63.8042136,22.2917129 63.8661721,22.2306806 C63.9274184,22.1700032 64.0064688,22.1394871 64.1043917,22.1394871 L69.4431454,22.1394871 C70.2507418,22.1394871 70.9589911,22.3037774 71.5710979,22.6330677 C72.1821365,22.9620032 72.6567953,23.4279065 72.9925816,24.0314871 C73.328724,24.6347129 73.4971513,25.3266484 73.4971513,26.1065839 C73.4971513,26.9110032 73.2981009,27.6121645 72.9010682,28.2090032 C72.5036795,28.8061968 71.9499703,29.2391 71.2410089,29.5066484 C71.1551929,29.5435516 71.1306231,29.6045839 71.1676558,29.6897452 L73.5160237,34.5524548 L73.5519881,34.6986484 C73.5519881,34.8572613 73.4544214,34.9363903 73.2589318,34.9363903 L70.7453412,34.9363903 C70.5619585,34.9363903 70.4334125,34.851229 70.3600593,34.6805516" id="Fill-24" fill="#475764"></path>
                    <path d="M77.2787537,34.6623484 L73.6278338,22.5052194 C73.615727,22.468671 73.6096736,22.4257355 73.6096736,22.3767677 C73.6096736,22.2188645 73.7072404,22.1393806 73.90273,22.1393806 L76.4900297,22.1393806 C76.6851632,22.1393806 76.8072997,22.2369613 76.8560831,22.4321226 L78.9295549,30.5487032 C78.9537685,30.5980258 78.981543,30.6218 79.0121662,30.6218 C79.0427893,30.6218 79.0641543,30.5980258 79.0762611,30.5487032 L81.1127003,22.4321226 C81.1618398,22.2369613 81.2839763,22.1393806 81.479822,22.1393806 L84.0112166,22.1393806 C84.1337092,22.1393806 84.2188131,22.1698968 84.2675964,22.230929 C84.3167359,22.2919613 84.3227893,22.3835097 84.2864688,22.5052194 L80.5988724,34.6623484 C80.550089,34.8454452 80.421543,34.9362839 80.2139466,34.9362839 L77.6455193,34.9362839 C77.4493175,34.9362839 77.3275371,34.8454452 77.2787537,34.6623484" id="Fill-26" fill="#475764"></path>
                    <path d="M85.298635,34.8449484 C85.2370326,34.7839161 85.2067656,34.7047871 85.2067656,34.6072065 L85.2067656,22.4688839 C85.2067656,22.3713032 85.2370326,22.2921742 85.298635,22.2311419 C85.3598813,22.1701097 85.4392878,22.1392387 85.5375668,22.1392387 L87.9218991,22.1392387 C88.019822,22.1392387 88.0992285,22.1701097 88.1604748,22.2311419 C88.2217211,22.2921742 88.2527003,22.3713032 88.2527003,22.4688839 L88.2527003,34.6072065 C88.2527003,34.7047871 88.2217211,34.7839161 88.1604748,34.8449484 C88.0992285,34.9063355 88.019822,34.9364968 87.9218991,34.9364968 L85.5375668,34.9364968 C85.4392878,34.9364968 85.3598813,34.9063355 85.298635,34.8449484" id="Fill-28" fill="#475764"></path>
                    <path d="M91.7693412,34.5161194 C91.0290445,34.1382161 90.4546825,33.6020548 90.0451869,32.9072806 C89.6349792,32.2125065 89.4302315,31.4080871 89.4302315,30.4943774 L89.4302315,26.5450226 C89.4302315,25.6433774 89.6349792,24.847829 90.0451869,24.1594419 C90.4546825,23.4710548 91.0290445,22.9377323 91.7693412,22.5601839 C92.5092819,22.1822806 93.3685104,21.9931516 94.3463145,21.9931516 C95.3248309,21.9931516 96.1840593,22.1734097 96.9243561,22.5325065 C97.6642967,22.8923129 98.2390148,23.3979581 98.6481543,24.0497968 C99.058362,24.7019903 99.2634659,25.4546032 99.2634659,26.3072806 C99.2634659,26.4172806 99.1591335,26.4839903 98.9515371,26.508829 L96.5664926,26.6727645 L96.4749792,26.6727645 C96.3033472,26.6727645 96.2182433,26.6429581 96.2182433,26.5819258 L96.2182433,26.4722806 C96.2182433,25.899571 96.0469674,25.4421839 95.7047715,25.1011839 C95.3615074,24.7601839 94.9089258,24.5887968 94.3463145,24.5887968 C93.7844154,24.5887968 93.3314777,24.7626677 92.9892819,25.1097 C92.6463739,25.4574419 92.475454,25.9116355 92.475454,26.4722806 L92.475454,30.6217645 C92.475454,31.1827645 92.6463739,31.6337645 92.9892819,31.9751194 C93.3314777,32.3164742 93.7844154,32.4867968 94.3463145,32.4867968 C94.9089258,32.4867968 95.3615074,32.3164742 95.7047715,31.9751194 C96.0469674,31.6337645 96.2182433,31.1827645 96.2182433,30.6217645 C96.2182433,30.5486677 96.2453056,30.4943774 96.3008546,30.4574742 C96.3556914,30.4212806 96.4375905,30.4092161 96.5483323,30.4212806 L98.9515371,30.5486677 C99.1591335,30.5735065 99.2634659,30.6040226 99.2634659,30.6402161 L99.2634659,30.7317645 C99.2634659,31.5968613 99.058362,32.3590548 98.6481543,33.016571 C98.2390148,33.6751516 97.6642967,34.1836355 96.9243561,34.5430871 C96.1840593,34.9032484 95.3248309,35.0827968 94.3463145,35.0827968 C93.3685104,35.0827968 92.5092819,34.8936677 91.7693412,34.5161194" id="Fill-30" fill="#475764"></path>
                    <path d="M109.357211,24.6438677 C109.295608,24.7049 109.216558,24.7350613 109.119347,24.7350613 L103.504985,24.7350613 C103.419525,24.7350613 103.376439,24.7779968 103.376439,24.8631581 L103.376439,27.039029 C103.376439,27.1238355 103.419525,27.1664161 103.504985,27.1664161 L107.045875,27.1664161 C107.143442,27.1664161 107.222849,27.1969323 107.284095,27.2583194 C107.345697,27.3197065 107.37632,27.3981258 107.37632,27.4960613 L107.37632,29.4153839 C107.37632,29.5129645 107.345697,29.5920935 107.284095,29.652771 C107.222849,29.7145129 107.143442,29.7446742 107.045875,29.7446742 L103.504985,29.7446742 C103.419525,29.7446742 103.376439,29.7879645 103.376439,29.8724161 L103.376439,32.2125774 C103.376439,32.2977387 103.419525,32.3403194 103.504985,32.3403194 L109.119347,32.3403194 C109.216558,32.3403194 109.295608,32.3708355 109.357211,32.4318677 C109.418457,32.4932548 109.44908,32.572029 109.44908,32.6696097 L109.44908,34.6073839 C109.44908,34.7049645 109.418457,34.7844484 109.357211,34.8454806 C109.295608,34.9061581 109.216558,34.9363194 109.119347,34.9363194 L100.66095,34.9363194 C100.563383,34.9363194 100.484332,34.9061581 100.42273,34.8454806 C100.361128,34.7844484 100.330861,34.7049645 100.330861,34.6073839 L100.330861,22.4687065 C100.330861,22.3711258 100.361128,22.2919968 100.42273,22.2306097 C100.484332,22.1699323 100.563383,22.1394161 100.66095,22.1394161 L109.119347,22.1394161 C109.216558,22.1394161 109.295608,22.1699323 109.357211,22.2306097 C109.418457,22.2919968 109.44908,22.3711258 109.44908,22.4687065 L109.44908,24.4061258 C109.44908,24.5037065 109.418457,24.5831903 109.357211,24.6438677" id="Fill-32" fill="#475764"></path>
                    <g id="Group-36" transform="translate(110.029674, 21.817613)">
                        <mask id="mask-4" fill="white">
                            <use xlink:href="#path-3"></use>
                        </mask>
                        <g id="Clip-35"></g>
                        <path d="M2.47000593,12.7802968 C1.7297092,12.4581032 1.15819585,11.994329 0.754753709,11.3911032 C0.35095549,10.7882323 0.149412463,10.0902645 0.149412463,9.29826452 L0.149412463,9.06087742 C0.149412463,8.96294194 0.179323442,8.88416774 0.240569733,8.82278065 C0.302172107,8.76210323 0.381578635,8.73123226 0.479145401,8.73123226 L2.80899703,8.73123226 C2.90727596,8.73123226 2.98597033,8.75252258 3.04792878,8.79545806 C3.10917507,8.83839355 3.13944214,8.88984516 3.13944214,8.95052258 L3.13944214,9.1698129 C3.13944214,9.56049032 3.3381365,9.90716774 3.73623739,10.212329 C4.13327003,10.5167806 4.64389318,10.6693613 5.26703858,10.6693613 C5.8054362,10.6693613 6.20318101,10.5536839 6.460273,10.3216194 C6.7170089,10.0902645 6.84519881,9.82236129 6.84519881,9.51755484 C6.84519881,9.17690968 6.69528783,8.91397419 6.39546588,8.73123226 C6.09564392,8.54849032 5.5611632,8.3355871 4.79059941,8.09145806 L4.38751335,7.96371613 C3.60413056,7.70716774 2.91938279,7.43039355 2.33220178,7.13126452 C1.74502077,6.8332 1.24365579,6.41874839 0.828462908,5.88861935 C0.41220178,5.35813548 0.204605341,4.70310323 0.204605341,3.92316774 C0.204605341,3.16771613 0.40294362,2.50629677 0.800688427,1.93961935 C1.19807715,1.37329677 1.74822552,0.937554839 2.45148961,0.632393548 C3.15475371,0.327941935 3.95273591,0.175716129 4.84614837,0.175716129 C5.78691988,0.175716129 6.63404154,0.34603871 7.38608902,0.687393548 C8.13849258,1.02874839 8.72781009,1.50990968 9.15653412,2.1315871 C9.58454599,2.75326452 9.79926409,3.46578065 9.79926409,4.27055484 L9.79926409,4.41710323 C9.79926409,4.51432903 9.76864095,4.5938129 9.70668249,4.65449032 C9.6454362,4.71552258 9.56674184,4.74568387 9.46846291,4.74568387 L7.13825519,4.74568387 C7.04068843,4.74568387 6.96092582,4.73042581 6.90003561,4.70026452 C6.83950148,4.67010323 6.80887834,4.62432903 6.80887834,4.56329677 L6.80887834,4.39829677 C6.80887834,3.97213548 6.61837389,3.59387742 6.24021365,3.26529677 C5.86062908,2.93600645 5.3528546,2.77136129 4.71724629,2.77136129 C4.24045104,2.77136129 3.86727596,2.86929677 3.59807715,3.06374839 C3.3295905,3.25890968 3.1949911,3.5332 3.1949911,3.88697419 C3.1949911,4.15452258 3.27938279,4.37736129 3.45101484,4.55371613 C3.62264688,4.73042581 3.88828487,4.89507097 4.24935312,5.04729677 C4.61006528,5.20023226 5.16306231,5.39787742 5.90941246,5.64200645 C6.7654362,5.93403871 7.43237982,6.1905871 7.90917507,6.40952258 C8.38597033,6.6288129 8.83570326,6.98542581 9.25730564,7.47936129 C9.67997626,7.9725871 9.89042136,8.6215871 9.89042136,9.42636129 C9.89042136,10.1935226 9.68816617,10.8670065 9.2854362,11.4461032 C8.88163798,12.0252 8.31297329,12.4733613 7.57944214,12.7895226 C6.84519881,13.1067484 6.00163798,13.2650065 5.04769139,13.2650065 C4.06881899,13.2650065 3.2095905,13.1035548 2.47000593,12.7802968" id="Fill-34" fill="#475764" mask="url(#mask-4)"></path>
                    </g>
                    <path d="M45.1892226,50.9416032 C44.4489258,50.6194097 43.8774125,50.1559903 43.4736142,49.5524097 C43.0701721,48.9491839 42.868273,48.251571 42.868273,47.459571 L42.868273,47.2221839 C42.868273,47.1242484 42.8985401,47.0447645 42.9597864,46.9840871 C43.0210326,46.9234097 43.1004392,46.8925387 43.1987181,46.8925387 L45.5282136,46.8925387 C45.6261365,46.8925387 45.705543,46.913829 45.7671454,46.9571194 C45.8276795,46.9993452 45.8586588,47.0511516 45.8586588,47.111829 L45.8586588,47.3311194 C45.8586588,47.7214419 46.0573531,48.0684742 46.4547418,48.3736355 C46.8524866,48.6780871 47.3631098,48.8306677 47.9869674,48.8306677 C48.5250089,48.8306677 48.9223976,48.7146355 49.1794896,48.4829258 C49.4362255,48.251571 49.5640593,47.9833129 49.5640593,47.6785065 C49.5640593,47.3375065 49.4141484,47.0752806 49.1146825,46.8925387 C48.8155727,46.7097968 48.2803798,46.4965387 47.5094599,46.2524097 L47.1063739,46.1246677 C46.3233472,45.868829 45.6382433,45.5917 45.0517745,45.292571 C44.4642374,44.9945065 43.9628724,44.5800548 43.5476795,44.0499258 C43.1314184,43.5197968 42.9234659,42.8647645 42.9234659,42.0844742 C42.9234659,41.3293774 43.1221602,40.6679581 43.519549,40.1009258 C43.9169377,39.5349581 44.4670861,39.0985065 45.1710623,38.7940548 C45.8736142,38.4896032 46.6719525,38.3370226 47.5650089,38.3370226 C48.5061365,38.3370226 49.3536142,38.5077 50.1056617,38.8487 C50.8577092,39.1904097 51.4477389,39.6712161 51.8757507,40.2928935 C52.3041187,40.9149258 52.5184807,41.6274419 52.5184807,42.4318613 L52.5184807,42.5784097 C52.5184807,42.6759903 52.4875015,42.7551194 52.4262552,42.8165065 C52.3650089,42.876829 52.2856024,42.9069903 52.1876795,42.9069903 L49.858184,42.9069903 C49.759549,42.9069903 49.6804985,42.8920871 49.6192522,42.861571 C49.5580059,42.8317645 49.528095,42.7856355 49.528095,42.7246032 L49.528095,42.5599581 C49.528095,42.1334419 49.3379466,41.7555387 48.9587181,41.4269581 C48.5802018,41.0976677 48.0720712,40.9330226 47.4364629,40.9330226 C46.9596677,40.9330226 46.5861365,41.0309581 46.3172938,41.2254097 C46.048451,41.420571 45.9142077,41.6945065 45.9142077,42.0486355 C45.9142077,42.3161839 45.9996677,42.5386677 46.1702315,42.7153774 C46.3415074,42.8920871 46.6078576,43.0567323 46.9685697,43.2089581 C47.3289258,43.3611839 47.882635,43.5591839 48.6289852,43.8033129 C49.4846528,44.0953452 50.1515964,44.3511839 50.6283917,44.570829 C51.105543,44.7901194 51.5549199,45.1463774 51.9765223,45.6406677 C52.3988368,46.1338935 52.609638,46.7828935 52.609638,47.5869581 C52.609638,48.354829 52.408095,49.0286677 52.0046528,49.6074097 C51.6008546,50.1865065 51.0321899,50.6343129 50.2986588,50.950829 C49.5640593,51.2680548 48.7204985,51.4263129 47.7665519,51.4263129 C46.7880356,51.4263129 45.9288071,51.2648613 45.1892226,50.9416032" id="Fill-37" fill="#475764"></path>
                    <path d="M57.1607715,46.9476097 C57.1607715,47.0207065 57.1978042,47.0569 57.2704451,47.0569 L59.9859347,47.0569 C60.0340059,47.0569 60.068546,47.0419968 60.0867062,47.0114806 C60.1052226,46.9813194 60.1077151,46.9476097 60.0959644,46.9107065 L58.7018991,42.0479968 C58.6894362,41.9873194 58.6680712,41.9568032 58.6374481,41.9568032 C58.607181,41.9568032 58.5790504,41.9873194 58.5551929,42.0479968 L57.1607715,46.9107065 L57.1607715,46.9476097 Z M61.2703264,51.0059 L60.848368,49.5070613 C60.8362611,49.4336097 60.7871217,49.3974161 60.7016617,49.3974161 L56.5554303,49.3974161 C56.4820772,49.3974161 56.4332938,49.4336097 56.408368,49.5070613 L55.9867656,51.0059 C55.9379822,51.1886419 55.8151335,51.2801903 55.6196439,51.2801903 L53.0330564,51.2801903 C52.9109199,51.2801903 52.8247478,51.2471903 52.7763205,51.179771 C52.7275371,51.1127065 52.7214837,51.0239968 52.7581602,50.9147065 L56.6102671,38.7575774 C56.6715134,38.5748355 56.8000593,38.4832871 56.995905,38.4832871 L60.2430267,38.4832871 C60.4502671,38.4832871 60.5791691,38.5748355 60.6283086,38.7575774 L64.4985757,50.9147065 C64.5113947,50.9388355 64.5174481,50.981771 64.5174481,51.0424484 C64.5174481,51.2007065 64.4191691,51.2801903 64.2240356,51.2801903 L61.6374481,51.2801903 C61.4412463,51.2801903 61.3191098,51.1886419 61.2703264,51.0059 Z" id="Fill-39" fill="#475764"></path>
                </g>
            </g>
        </g>
    </g>
</svg>